<?xml version="1.0" encoding="utf-8"?>
<!-- Generator: Adobe Illustrator 26.3.1, SVG Export Plug-In . SVG Version: 6.00 Build 0)  -->
<svg version="1.1" id="Layer_1" xmlns="http://www.w3.org/2000/svg" xmlns:xlink="http://www.w3.org/1999/xlink" x="0px" y="0px"
	 viewBox="0 0 800 800" style="enable-background:new 0 0 800 800;" xml:space="preserve">
<style type="text/css">
	.st0{fill:#E6FFE8;stroke:#0F1942;stroke-width:16.6667;stroke-linecap:round;stroke-linejoin:round;stroke-miterlimit:66.6667;}
	.st1{fill:#FFFFFF;stroke:#0F1942;stroke-width:16.6667;stroke-linecap:round;stroke-linejoin:round;stroke-miterlimit:66.6667;}
	.st2{fill:#CAD1FC;stroke:#0F1942;stroke-width:16.6667;stroke-linecap:round;stroke-linejoin:round;stroke-miterlimit:66.6667;}
	.st3{fill:#011241;}
</style>
<path class="st0" d="M317.5,145.2C290.1,90.1,223.2,67.6,168.1,95s-77.6,94.2-50.2,149.3c9.4,19,24.1,34.9,42.2,45.9
	c0,0,70.8,39.6,136-11.4S317.5,145.2,317.5,145.2z"/>
<path class="st1" d="M361.5,519.3H217.7C67.5,505.9,68.3,286,218.6,273.7c27.6-105.3,110.7-151.4,190.6-147.1
	c64.8,3,123.1,40.2,153,97.8c187.6,32.2,165,272.6,0,294.9H409.1"/>
<path class="st2" d="M419.2,422.7l-78.8,144.7l52.2,26.4L370,703.2l87-128.8l-50.8-27.2L419.2,422.7z"/>
<circle class="st3" cx="291" cy="560.8" r="12.5"/>
<circle class="st3" cx="473.9" cy="660.4" r="12.5"/>
<circle class="st3" cx="508.2" cy="578.9" r="12.5"/>
<circle class="st3" cx="199.4" cy="580.7" r="12.5"/>
<circle class="st3" cx="298.3" cy="628.5" r="12.5"/>
<circle class="st3" cx="627.6" cy="567.3" r="12.5"/>
<circle class="st3" cx="574.9" cy="690.7" r="12.5"/>
<circle class="st3" cx="567.7" cy="615.3" r="12.5"/>
<circle class="st3" cx="235.4" cy="703.2" r="12.5"/>
</svg>
